<svg xmlns="http://www.w3.org/2000/svg" width="168" height="150" viewBox="0 0 168 150">
    <defs>
        <style>
            .cls-1{fill:#0f506a}.cls-2{fill:#e6502e}
        </style>
    </defs>
    <g id="LIMeat" transform="translate(-375.334 -181.652)">
        <path id="_path_M" d="M571.193 244.008a13.634 13.634 0 0 0 4.1-1.877 15.018 15.018 0 0 0 4.268-4.609 5.084 5.084 0 0 0 .919-2.561q0-1.478-1.4-1.479a.556.556 0 0 0-.19.029.545.545 0 0 1-.188.027q-3.838 8.364-12.262 8.364a16 16 0 0 1-3.916-.455 11.022 11.022 0 0 1-3.376-1.48 13.307 13.307 0 0 1-2.971-2.731 23.908 23.908 0 0 1-2.7-4.21h-.324a1.827 1.827 0 0 0-1.027.285 1.134 1.134 0 0 0-.432 1.024 4.008 4.008 0 0 0 .648 2.048 19.48 19.48 0 0 0 2.566 3.528 17.535 17.535 0 0 0 2.809 2.476 12.488 12.488 0 0 0 2.836 1.507 10.543 10.543 0 0 0 2.539.626l-.432 10.754a27.094 27.094 0 0 1-2.943 1.764 18.166 18.166 0 0 1-3.485 1.337 29.144 29.144 0 0 1-4.4.824 49.5 49.5 0 0 1-5.645.285 33.832 33.832 0 0 1-6.319-.626 21.48 21.48 0 0 1-6.05-2.076 14.175 14.175 0 0 1-4.565-3.728 8.762 8.762 0 0 1-1.809-5.633q0-1.763.162-4.807t.459-6.914q.3-3.868.675-8.364t.81-9.074q.432-4.58.864-9.076t.864-8.364q.432-3.868.783-6.884t.621-4.723a15.37 15.37 0 0 1 3.565-2.5 21.647 21.647 0 0 1 4.186-1.621 29.641 29.641 0 0 1 4.4-.854 37.231 37.231 0 0 1 4.267-.257 44.253 44.253 0 0 1 7.295.615c3.073.554 7.911.968 10.194 7.212l-1.446 5.714-1.891 8.364a8.656 8.656 0 0 0-.162.854 5.888 5.888 0 0 0-.054.8q0 1.936 2.161 2.049l5.131-22.474a20.513 20.513 0 0 1 2.349-1.081 27.2 27.2 0 0 1 3.186-1.024 33.905 33.905 0 0 1 3.81-.739 33.409 33.409 0 0 1 10.939.37 12.932 12.932 0 0 1 4.861 2.105 10.085 10.085 0 0 1 3.105 3.783 17.6 17.6 0 0 1 1.513 5.747q.377 3.584.945 8.648t1.162 10.726q.593 5.662 1.188 11.464t1.055 10.9q.455 5.092.756 9.017t.3 5.8q-6 6.657-17.285 6.657a31.722 31.722 0 0 1-6.536-.626 16.416 16.416 0 0 1-5.1-1.906 10.616 10.616 0 0 1-3.4-3.158 9.148 9.148 0 0 1-1.485-4.438z" class="cls-1" transform="translate(-62.159 -.843)"/>
        <path id="_path_I" d="M494.217 257.866a26.114 26.114 0 0 1-9.8 1.65 24.605 24.605 0 0 1-5.834-.682 15.749 15.749 0 0 1-4.942-2.076 10.716 10.716 0 0 1-3.4-3.528 9.663 9.663 0 0 1-1.27-5.036v-58.775a20.667 20.667 0 0 1 6.293-3.7 26.135 26.135 0 0 1 9.8-1.65 24.615 24.615 0 0 1 5.833.683 15.761 15.761 0 0 1 4.943 2.077 10.723 10.723 0 0 1 3.4 3.528 9.667 9.667 0 0 1 1.269 5.034v58.774a20.639 20.639 0 0 1-6.292 3.701z" class="cls-1" transform="translate(-36.825 -.875)"/>
        <path id="_path_L" d="M387.866 257.674q-5.833 0-9.182-3.271t-3.349-10.214l.129-55.82c.956-1.825 1.9-3.361 6.894-5.322a23.116 23.116 0 0 1 8.534-1.395 55.317 55.317 0 0 1 7.364.642 21.471 21.471 0 0 1 8.106 2.68 8.336 8.336 0 0 1 4.332 5.952 29.018 29.018 0 0 1 .585 6.381v30.432c-.9.076-6.261.957-7.288 1.259a16.344 16.344 0 0 0-2.862 1.138 9.968 9.968 0 0 0-2.215 1.509 2.329 2.329 0 0 0-.892 1.678 1.548 1.548 0 0 0 .3 1 3.082 3.082 0 0 0 .729.653 16.753 16.753 0 0 1 6.914-3.7 35.375 35.375 0 0 1 8.967-1.024h12.8a28.335 28.335 0 0 1 1.458 3.1 30.852 30.852 0 0 1 1.108 3.3 33 33 0 0 1 .729 3.327 19.094 19.094 0 0 1 .27 3.073 30.422 30.422 0 0 1-.3 4.183 31.166 31.166 0 0 1-.837 4.067 24.2 24.2 0 0 1-1.3 3.585 11.893 11.893 0 0 1-1.729 2.788z" class="cls-1"/>
        <path id="_path_t" d="M575.086 347.758h3.4c.973 0 2.993-.137 2.993-.137s-.147-1.3-.222-1.5h-12.59a21.3 21.3 0 0 1-.928-3.955 28.192 28.192 0 0 1-.437-4.194v-3.583c0-3.364.481-6.587 1.217-7.382 1.574-.861 11.408-.8 12.816-1.112.034-.988-.926-12.472-.926-12.472s2.68-.546 6.243-.925a39.232 39.232 0 0 1 6.07-.3 48.364 48.364 0 0 1 4.862.249q2.443.249 5.367.8v12.185h9.725a15.714 15.714 0 0 1 2.445 4.9 18.716 18.716 0 0 1 .816 5.4 19.77 19.77 0 0 1-.816 5.4 14.333 14.333 0 0 1-2.445 4.948h-8.039v7.51q0 3.432 1.574 4.9a6.266 6.266 0 0 0 4.442 1.468h2.415q.448 1.493.816 3.184a15.954 15.954 0 0 1 .366 3.382q0 6.916-4.892 10.544t-13.939 3.631a29.467 29.467 0 0 1-8.29-1.094 17.744 17.744 0 0 1-6.436-3.332 14.859 14.859 0 0 1-4.159-5.595 19.762 19.762 0 0 1-1.462-7.934z" class="cls-2" transform="translate(-76.558 -49.037)"/>
        <path id="_path_a" d="M533.422 361.656a7.411 7.411 0 0 1-3.112-4.084 22.138 22.138 0 0 1-.819-6.557v-11.274a28.79 28.79 0 0 0-1.746-10.325 19.591 19.591 0 0 0-5.241-7.707 23.589 23.589 0 0 0-8.761-4.8 40.929 40.929 0 0 0-12.311-1.668 52 52 0 0 0-7.561.518q-3.521.517-6.442 1.235a46.051 46.051 0 0 0-5.131 1.555q-2.21.833-3.63 1.523a9.214 9.214 0 0 0-.791 2.9 28 28 0 0 0-.191 3.251 30.327 30.327 0 0 0 .736 6.672 19.951 19.951 0 0 0 1.938 5.407 22.7 22.7 0 0 1 6.66-2.646 32.7 32.7 0 0 1 7.425-.862q1.638 0 3.221.115a36.441 36.441 0 0 1 3.714.526c.8.174.289 2.562-.548 2.407q-1.092-.172-2.62-.315t-3.494-.145a26.68 26.68 0 0 0-8.27 1.265 19.047 19.047 0 0 0-6.851 3.882 18.429 18.429 0 0 0-4.668 6.616 23.823 23.823 0 0 0-1.72 9.461 25.177 25.177 0 0 0 1.61 9.346 19.288 19.288 0 0 0 4.531 6.874 19.042 19.042 0 0 0 6.988 4.257 26.981 26.981 0 0 0 9.035 1.438 28.615 28.615 0 0 0 6.005-.633 14.343 14.343 0 0 0 5.055-2.1c-.62-.651-2.4-4.3-2.093-4.645a2.57 2.57 0 0 1 1.678-.673 11.326 11.326 0 0 0 2.1 3.6 12.19 12.19 0 0 0 3 2.5 13.8 13.8 0 0 0 3.548 1.466 15.268 15.268 0 0 0 3.849.49 15.8 15.8 0 0 0 5.459-.978 13.383 13.383 0 0 0 4.777-3.019 15.3 15.3 0 0 0 3.412-5.206 19.636 19.636 0 0 0 1.31-7.535v-1.007a9.932 9.932 0 0 0-.051-1.125zm-39.983.856c-1.061 0-1.921-2.336-1.921-5.217s.86-5.217 1.921-5.217 1.922 2.336 1.922 5.217-.861 5.217-1.922 5.217z" class="cls-2" transform="translate(-39.279 -50.136)"/>
        <path id="_path_e" d="M407.138 359.595a27.8 27.8 0 0 0 7.179.921 34.426 34.426 0 0 0 9.117-1.15 20.358 20.358 0 0 0 7.26-3.539 16.3 16.3 0 0 0 4.777-6.067 20.641 20.641 0 0 0 1.72-8.8 25.872 25.872 0 0 0-2.02-10.181 24.728 24.728 0 0 0-5.759-8.341 27.021 27.021 0 0 0-9.035-5.609 34.856 34.856 0 0 0-23.747.088 27.809 27.809 0 0 0-9.853 6.327 30.28 30.28 0 0 0-6.715 10.411 38.361 38.361 0 0 0-2.484 14.322 39.039 39.039 0 0 0 2.321 13.862 28.972 28.972 0 0 0 6.6 10.439 28.594 28.594 0 0 0 10.345 6.557 38.3 38.3 0 0 0 13.539 2.273 51.321 51.321 0 0 0 8.816-.662 37.3 37.3 0 0 0 6.578-1.726 23.164 23.164 0 0 0 4.913-2.472 37.294 37.294 0 0 0 3.822-2.963 16.017 16.017 0 0 0 .354-2.043 21.8 21.8 0 0 0 .137-2.5 25.471 25.471 0 0 0-.765-5.982 19.738 19.738 0 0 0-.9-2.731 5.135 5.135 0 0 0-1.228-1.871 21.574 21.574 0 0 1-2.73 1.668 24.622 24.622 0 0 1-3.849 1.583 36.369 36.369 0 0 1-4.995 1.207 35.708 35.708 0 0 1-6.169.49 29.838 29.838 0 0 1-9.28-1.525 14.648 14.648 0 0 1-3.112-1.5c-1.006-.638-1.661-.962-1.645-1.223a6.563 6.563 0 0 1 .88-1.739 21.224 21.224 0 0 0 5.928 2.476zm9.137-13.693c.849 0 1.538 1.869 1.538 4.174s-.689 4.173-1.538 4.173-1.537-1.869-1.537-4.173.688-4.176 1.537-4.176zm-8.067 0c.849 0 1.537 1.869 1.537 4.174s-.688 4.173-1.537 4.173-1.537-1.869-1.537-4.173.688-4.176 1.537-4.176z" class="cls-2" transform="translate(-.81 -49.973)"/>
    </g>
</svg>
